<?xml version="1.0" encoding="UTF-8"?>
<svg version="1.1" xmlns="http://www.w3.org/2000/svg" width="918" height="846">
<path d="M0 0 C3.9422509 0.83817226 6.39165241 3.50656695 8.87109375 6.5546875 C30.80147188 40.66860904 41.63560386 85.39922056 50.16796875 124.4609375 C50.39967773 125.50636719 50.63138672 126.55179687 50.87011719 127.62890625 C56.24655247 152.54524952 57.90335121 178.11757718 60.16796875 203.4609375 C75.61805781 204.36425495 91.0065489 204.58561002 106.48046875 204.5234375 C108.6972646 204.51840412 110.91406157 204.51384452 113.13085938 204.50976562 C118.47658779 204.49892474 123.82227269 204.48233717 129.16796875 204.4609375 C129.27682404 203.7842955 129.38567932 203.1076535 129.49783325 202.4105072 C130.678582 195.08635136 131.90647557 187.77163005 133.16796875 180.4609375 C133.35520508 179.36120605 133.54244141 178.26147461 133.73535156 177.12841797 C140.11242453 140.30329974 140.11242453 140.30329974 152.6171875 130.55078125 C157.88763909 128.2989344 164.12210383 128.48725937 169.55078125 130.22265625 C171.53903717 131.17898467 173.33623225 132.23406013 175.16796875 133.4609375 C176.03421875 133.9971875 176.90046875 134.5334375 177.79296875 135.0859375 C185.75938617 143.05235492 188.11434464 152.20864902 188.48046875 163.1484375 C188.14787704 179.3414963 183.09957089 193.76221511 173.16796875 206.4609375 C172.62269531 207.1828125 172.07742188 207.9046875 171.515625 208.6484375 C166.46516537 214.92289088 160.31327454 219.46331204 152.40234375 221.3671875 C147.91420933 222.55850288 144.20931794 223.80036886 141.16796875 227.4609375 C137.88956512 235.53567562 137.0023644 244.42291198 135.73876953 252.99169922 C135.00536727 257.44920399 133.88940615 261.67493945 132.48046875 265.9609375 C132.10535156 267.12625 131.73023438 268.2915625 131.34375 269.4921875 C130.19066125 272.40364081 128.97084753 274.90066377 127.16796875 277.4609375 C124.60546875 278.3984375 124.60546875 278.3984375 122.16796875 278.4609375 C119.61211664 275.90508539 119.88279279 274.18631625 119.83984375 270.69555664 C119.845 269.89625732 119.85015625 269.09695801 119.85546875 268.2734375 C119.85740234 267.03291626 119.85740234 267.03291626 119.859375 265.76733398 C120.00431437 255.99207948 121.41661523 246.37443401 122.89257812 236.72485352 C123.24847099 234.17924985 123.24847099 234.17924985 123.16796875 230.4609375 C122.57973831 230.53158417 121.99150787 230.60223083 121.38545227 230.67501831 C114.78664027 231.40852873 108.28407624 231.60712166 101.6484375 231.59375 C100.58683914 231.59470673 99.52524078 231.59566345 98.43147278 231.59664917 C96.20537252 231.5973252 93.97927022 231.59551152 91.75317383 231.59130859 C88.34777428 231.58592534 84.94250502 231.5912869 81.53710938 231.59765625 C79.36588513 231.59699589 77.19466096 231.59571559 75.0234375 231.59375 C74.00879929 231.59577423 72.99416107 231.59779846 71.94877625 231.59988403 C70.52623283 231.59515579 70.52623283 231.59515579 69.07495117 231.59033203 C68.24573654 231.58953644 67.41652191 231.58874084 66.56217957 231.58792114 C64.01779855 231.4529728 61.6513749 231.01791183 59.16796875 230.4609375 C59.20277344 231.77320313 59.23757813 233.08546875 59.2734375 234.4375 C60.2009266 285.71640494 48.29614646 338.04400546 32.16796875 386.4609375 C31.73236802 387.78628027 31.29732497 389.11180644 30.86279297 390.4375 C9.69689085 454.87025971 -23.94687661 511.19566882 -86.27099609 542.828125 C-128.06298789 563.31352981 -176.71720832 571.31783145 -221.625 556.96875 C-240.43329456 550.5144525 -257.2602687 539.20313757 -266.83203125 521.4609375 C-273.11395982 506.82840901 -274.74023059 489.3573845 -269.0859375 474.20703125 C-259.05548783 452.24003401 -238.85029711 437.20893538 -216.83203125 428.4609375 C-207.3689775 425.11785153 -197.9739483 421.81700626 -187.83203125 422.4609375 C-185.5859375 423.9765625 -185.5859375 423.9765625 -183.83203125 425.4609375 C-184.70302065 432.31997902 -186.76395287 437.80720496 -189.76953125 443.9609375 C-195.34643581 455.46830039 -199.23772583 465.86043411 -195.98828125 478.828125 C-193.28624622 486.58734723 -189.36148739 492.44480638 -183.83203125 498.4609375 C-183.22617187 499.15832031 -182.6203125 499.85570312 -181.99609375 500.57421875 C-170.26478159 513.32026466 -154.75359453 518.77366124 -137.75 519.49609375 C-104.47114246 519.19747987 -75.62222048 503.98894628 -51.83203125 481.4609375 C-51.00960937 480.69136719 -50.1871875 479.92179687 -49.33984375 479.12890625 C9.88316651 422.02759262 24.60456303 323.45730302 28.7734375 245.046875 C29.04033215 240.14070302 29.46378508 235.32286652 30.16796875 230.4609375 C10.2939148 231.81648758 -9.23843146 233.85325775 -28.83691406 237.47900391 C-50.44084237 241.42715133 -50.44084237 241.42715133 -58.83203125 236.4609375 C-63.53879654 231.38258548 -64.19881765 228.05374521 -64.1015625 221.28125 C-63.54168812 215.42285428 -60.82268443 212.03386669 -56.39453125 208.3359375 C-46.46155045 201.38471454 -35.3808687 199.30852437 -23.54296875 199.29296875 C-22.64446198 199.28964035 -21.7459552 199.28631195 -20.82022095 199.28288269 C-18.91563424 199.27783005 -17.01103872 199.27547385 -15.10644531 199.27563477 C-12.26481378 199.27348129 -9.42359247 199.25540067 -6.58203125 199.23632812 C5.78689018 199.19958556 17.88877246 199.98639801 30.16796875 201.4609375 C29.83796875 200.4709375 29.50796875 199.4809375 29.16796875 198.4609375 C28.99442281 196.33504507 28.8706988 194.20496441 28.7734375 192.07421875 C28.70737305 190.7598584 28.64130859 189.44549805 28.57324219 188.09130859 C28.53839722 187.38899109 28.50355225 186.68667358 28.46765137 185.96307373 C26.2574844 142.82393348 18.75657486 101.10031615 4.10546875 60.3984375 C-10.22403367 20.53895583 -10.22403367 20.53895583 -7.83203125 2.4609375 C-5.29034688 -0.08074687 -3.47673964 0.14794637 0 0 Z M158.10839844 150.09985352 C152.01836295 157.51011184 151.07842681 169.86831054 149.30273438 179.03930664 C148.91192159 181.05462103 148.50942036 183.06736011 148.10546875 185.08007812 C146.65660325 192.21867986 146.65660325 192.21867986 146.16796875 199.4609375 C154.76829688 197.00370089 161.92638251 191.69012793 166.65234375 184.06640625 C170.45842758 176.77887515 173.47790428 168.805712 172.16796875 160.4609375 C170.39789345 155.21768741 167.96853227 151.41513043 163.16796875 148.4609375 C160.12053079 148.14960342 160.12053079 148.14960342 158.10839844 150.09985352 Z " fill="#F2EAE4" transform="translate(536.83203125,198.5390625)"/>
<path d="M0 0 C1.85200727 29.01478049 -23.12677297 62.33423835 -41.24584961 82.96020508 C-55.85565322 99.13034805 -73.91732362 109.60410982 -95 115 C-96.35738281 115.34998047 -96.35738281 115.34998047 -97.7421875 115.70703125 C-153.91909637 127.86994454 -218.26970924 101.26728528 -272.0625 86.5625 C-292.6151749 80.94647618 -313.13813971 75.36063348 -334 71 C-335.18303711 70.75217773 -336.36607422 70.50435547 -337.58496094 70.24902344 C-386.70035549 60.24827305 -458.0189936 51.74647697 -502.40527344 80.24462891 C-514.77434934 88.68140283 -522.99416998 100.10791792 -526.52734375 114.76953125 C-529.4994051 135.08271088 -524.51731277 153.99622223 -513.01953125 170.9140625 C-511.10563106 173.3818859 -509.1130039 175.70114872 -507 178 C-506.33613281 178.74378906 -505.67226563 179.48757813 -504.98828125 180.25390625 C-490.93423047 195.19120607 -472.11007945 203.75685497 -453.8671875 212.46484375 C-453.11872559 212.82562012 -452.37026367 213.18639648 -451.59912109 213.55810547 C-450.24142404 214.20774093 -448.87742545 214.84443494 -447.50634766 215.46533203 C-443.19777689 217.5166401 -443.19777689 217.5166401 -442.09375 220.21484375 C-442.04734375 221.09849609 -442.04734375 221.09849609 -442 222 C-453.69559795 229.7970653 -477.97663838 224.51374123 -491.375 223.6875 C-492.48328156 223.61997528 -493.59156311 223.55245056 -494.73342896 223.48287964 C-565.30916949 219.14294499 -565.30916949 219.14294499 -586 203 C-586.66128906 202.51273438 -587.32257813 202.02546875 -588.00390625 201.5234375 C-600.36418823 191.70293949 -608.70454408 175.4501841 -611 160 C-613.0955295 136.96580672 -605.41570338 116.91138407 -590.7890625 99.1875 C-581.94499867 88.90042358 -572.16726226 79.71545527 -561 72 C-560.33468262 71.53916016 -559.66936523 71.07832031 -558.98388672 70.60351562 C-524.30384429 46.94115919 -485.48411529 35.93816677 -444 32 C-443.26910156 31.92942383 -442.53820312 31.85884766 -441.78515625 31.78613281 C-362.36737237 24.58365625 -283.04780296 47.07559518 -208.44046021 71.69589233 C-144.94922352 93.35078878 -144.94922352 93.35078878 -80.796875 81.5078125 C-60.16630713 71.09286399 -45.41811171 54.36299874 -32 36 C-31.54882812 35.38866211 -31.09765625 34.77732422 -30.6328125 34.14746094 C-25.04049128 26.55969783 -19.81750755 18.77816503 -14.84130859 10.77148438 C-6.64338964 -2.21446321 -6.64338964 -2.21446321 0 0 Z " fill="#F2EAE4" transform="translate(837,116)"/>
<path d="M0 0 C0 4.05917886 -1.41690435 4.71604069 -4.25 7.5625 C-35.17810386 40.23641026 -49.33195256 88.82912064 -49 133 C-48.20159886 161.82849612 -40.64056844 188.70282753 -27 214 C-26.68401855 214.59184082 -26.36803711 215.18368164 -26.04248047 215.79345703 C-21.22974577 224.75042253 -15.93771264 233.41325123 -10.63299561 242.08383179 C2.9984608 264.38594604 14.4563534 286.21474904 20 312 C20.37769531 311.34515625 20.75539063 310.6903125 21.14453125 310.015625 C25.93336112 302.07536376 31.52579425 295.5687197 38 289 C38.64582031 288.34128906 39.29164063 287.68257812 39.95703125 287.00390625 C44.10542937 283.09049365 48.77179716 280.13929654 53.625 277.1875 C54.57584473 276.60899292 54.57584473 276.60899292 55.54589844 276.01879883 C59.26552019 273.82698303 62.82594965 272.21368541 67 271 C64.41455575 273.86975427 61.42220601 275.72649353 58.1875 277.8125 C36.21566225 292.65066471 23.82712187 314.42490475 16.95239258 339.56298828 C16.61050903 340.79637939 16.61050903 340.79637939 16.26171875 342.0546875 C16.06537842 342.79187012 15.86903809 343.52905273 15.66674805 344.28857422 C15 346 15 346 13 347 C12.98541748 346.23558594 12.97083496 345.47117187 12.95581055 344.68359375 C12.14972395 306.81176546 1.5424841 279.74493352 -18.625 248.125 C-48.82890119 200.62923229 -66.77107401 151.11877503 -54.42724609 94.29296875 C-47.7250042 65.20555833 -35.60688769 40.20275703 -17 17 C-16.16662109 15.95005859 -16.16662109 15.95005859 -15.31640625 14.87890625 C-12.15431207 11.03126319 -8.63580766 7.78920253 -4.83203125 4.578125 C-3.13809049 3.11895215 -1.55835516 1.60177682 0 0 Z " fill="#F2EAE4" transform="translate(200,468)"/>
<path d="M0 0 C0 0.33 0 0.66 0 1 C-1.72669922 1.12955078 -1.72669922 1.12955078 -3.48828125 1.26171875 C-52.06763731 5.35895916 -92.00029771 34.40010722 -122.9921875 70.70703125 C-125.76037457 73.86836551 -128.63201098 76.92931343 -131.5 80 C-136.60180045 85.46737418 -136.60180045 85.46737418 -141.5625 91.0625 C-149.8758004 100.6378195 -158.6324255 109.74962861 -167.5625 118.75 C-168.42439941 119.62487061 -169.28629883 120.49974121 -170.17431641 121.40112305 C-193.69415235 144.95434888 -222.32808255 162.92035167 -255 170 C-252.14738002 172.27640497 -249.14471049 174.10196329 -245.9753418 175.90405273 C-237.49598799 180.76223004 -230.1700759 186.38073472 -223 193 C-222.10410156 193.825 -221.20820313 194.65 -220.28515625 195.5 C-214.06407845 201.4814369 -208.98911051 207.98632291 -204 215 C-204.33 215.66 -204.66 216.32 -205 217 C-205.72703125 216.17757812 -206.4540625 215.35515625 -207.203125 214.5078125 C-230.37156635 188.6370353 -258.06073746 176.00269234 -291 167 C-287.61957615 164.7463841 -285.98893975 164.63117824 -281.99609375 164.32421875 C-280.78953125 164.22165771 -279.58296875 164.11909668 -278.33984375 164.01342773 C-277.05207031 163.90587158 -275.76429688 163.79831543 -274.4375 163.6875 C-250.44485165 161.44922066 -228.76676955 154.22415605 -209 140 C-208.39881348 139.56961426 -207.79762695 139.13922852 -207.17822266 138.69580078 C-199.18225822 132.93816045 -191.56718132 126.96923248 -184.375 120.2265625 C-182.29415667 118.27577188 -180.17176998 116.41025591 -178 114.5625 C-170.75410433 108.25395839 -164.13907607 101.34852626 -157.84985352 94.09936523 C-154.73750155 90.56721339 -151.49082116 87.16392257 -148.25 83.75 C-143.6774092 78.91887894 -139.13738296 74.0693144 -134.6875 69.125 C-123.59367603 56.99060556 -112.11837279 44.95731911 -99 35 C-97.9790625 34.1853125 -96.958125 33.370625 -95.90625 32.53125 C-66.96420272 9.52269162 -36.79216516 -1.11154578 0 0 Z " fill="#F2EAE4" transform="translate(291,95)"/>
<path d="M0 0 C32.01298581 5.57603236 57.15143724 18.53390852 80 42 C80.495 42.44988281 80.99 42.89976562 81.5 43.36328125 C108.97889499 68.9975282 118.39824979 108.05879024 119.91818237 144.15106201 C120.2766658 156.63366619 120.00795239 169.14694557 119.90405273 181.6340332 C119.53911232 227.19349115 125.02595675 271.21587002 151 310 C150.01 310 149.02 310 148 310 C146.5012207 308.32617187 146.5012207 308.32617187 144.92578125 305.96875 C144.34449463 305.10354736 143.76320801 304.23834473 143.16430664 303.34692383 C142.55321045 302.40743896 141.94211426 301.4679541 141.3125 300.5 C140.3697522 299.0627356 140.3697522 299.0627356 139.40795898 297.59643555 C134.28116084 289.6624988 129.77603522 281.65518186 126 273 C125.69513672 272.3090625 125.39027344 271.618125 125.07617188 270.90625 C112.58425852 242.11486723 110.59218402 211.77117708 110.4375 180.75 C110.34073916 165.74327365 110.13765804 150.79145203 109.0859375 135.81640625 C109.00754135 134.68648254 108.9291452 133.55655884 108.84837341 132.39239502 C106.22482379 98.10620709 92.91670434 68.4024687 70 43 C68.96166016 41.83597656 68.96166016 41.83597656 67.90234375 40.6484375 C49.6590019 21.31541627 25.14180779 8.77110423 0 1 C0 0.67 0 0.34 0 0 Z " fill="#F2EAE4" transform="translate(708,518)"/>
<path d="M0 0 C0 3 0 3 -1.36328125 4.59375 C-2.00652344 5.2228125 -2.64976562 5.851875 -3.3125 6.5 C-24.86572918 30.15133113 -31.55288268 65.16343663 -37.32629395 95.54623413 C-46.72142256 144.79278883 -46.72142256 144.79278883 -56 165 C-56.52078125 166.16144531 -57.0415625 167.32289063 -57.578125 168.51953125 C-69.00381309 192.73237961 -87.76183134 209.41028045 -109 225 C-109.66 224.67 -110.32 224.34 -111 224 C-110.53215088 223.54262451 -110.06430176 223.08524902 -109.58227539 222.61401367 C-100.89317906 214.0938037 -92.39385533 205.68697945 -85 196 C-84.27941406 195.11957031 -83.55882812 194.23914063 -82.81640625 193.33203125 C-61.24219992 166.22405969 -55.00893945 131.51037969 -48.08044434 98.45388794 C-43.47907244 76.5238269 -38.07781652 55.55614987 -29 35 C-38.6990755 51.20287407 -47.94096717 67.35208549 -55.875 84.5 C-56.35211426 85.52786621 -56.82922852 86.55573242 -57.32080078 87.61474609 C-59.63498315 92.68798599 -61.67521386 97.57903604 -63 103 C-63.33 103 -63.66 103 -64 103 C-63.38086685 76.25344814 -55.88032983 52.0782416 -36 33 C-22.25534514 21 -22.25534514 21 -19 21 C-18.63261719 20.15888672 -18.63261719 20.15888672 -18.2578125 19.30078125 C-14.07653147 11.65241315 -6.65975143 5.48023142 0 0 Z M-27 30 C-26 32 -26 32 -26 32 Z M-28 32 C-27 34 -27 34 -27 34 Z " fill="#F2EAE4" transform="translate(917,339)"/>
<path d="M0 0 C15.03784482 0.53706589 28.40307437 8.4619461 41 16 C38 17 38 17 35.44140625 16.00390625 C34.49136719 15.52824219 33.54132813 15.05257813 32.5625 14.5625 C28.87142332 12.7194726 27.21725261 12 23 12 C23.46148437 12.37769531 23.92296875 12.75539063 24.3984375 13.14453125 C40.55112612 26.77535742 51.49410684 44.46913811 62.77441406 62.08984375 C78.65839851 86.84607767 95.137265 108.89446698 124.4375 117.75 C125.09258545 117.94883789 125.7476709 118.14767578 126.42260742 118.35253906 C138.55125576 121.78631446 150.67247593 122.33231385 163.1875 122.25 C164.35448425 122.24734131 164.35448425 122.24734131 165.54504395 122.24462891 C179.7629883 122.20679781 193.84920646 121.43106465 208 120 C207.67 120.66 207.34 121.32 207 122 C204.75056047 122.58616521 202.47034554 123.05512288 200.18359375 123.47265625 C199.1487661 123.6646183 199.1487661 123.6646183 198.09303284 123.86045837 C196.62681229 124.13084719 195.15981411 124.39704699 193.69213867 124.65942383 C191.46954702 125.05677075 189.24933377 125.46559698 187.02929688 125.87695312 C155.0141021 131.74694146 121.45680465 132.22266272 93.3125 113.875 C73.4759111 99.39036206 61.10604532 78.85896734 48.34814453 58.34375 C35.08560437 37.02619693 21.49867444 17.44503684 -1 5 C-0.67 3.35 -0.34 1.7 0 0 Z " fill="#F2EAE4" transform="translate(46,306)"/>
<path d="M0 0 C19.1223864 15.41884121 41.88479339 31.61136818 67.79443359 29.22070312 C73.75727187 28.33898017 79.11629479 26.85586521 84.66162109 24.50976562 C84.66162109 25.16976562 84.66162109 25.82976562 84.66162109 26.50976562 C67.84274145 35.13622325 52.17768103 36.36336174 34.13720703 30.85327148 C18.56616293 25.67172662 5.64322475 16.28953575 -7.33837891 6.50976562 C-31.02871306 -11.21688546 -55.41346306 -25.04596155 -85.33837891 -28.49023438 C-86.23169922 -28.59980469 -87.12501953 -28.709375 -88.04541016 -28.82226562 C-116.62263483 -31.88849145 -146.86497877 -26.35252688 -172.11572266 -12.49414062 C-172.84919922 -12.16285156 -173.58267578 -11.8315625 -174.33837891 -11.49023438 C-174.99837891 -11.82023437 -175.65837891 -12.15023438 -176.33837891 -12.49023438 C-119.40330691 -52.62744116 -52.1553762 -42.27840854 0 0 Z " fill="#F2EAE4" transform="translate(814.33837890625,326.490234375)"/>
<path d="M0 0 C0.96739211 2.90217632 1.00447427 4.12062395 0.8125 7.0625 C0.72413928 13.06219271 2.0852745 18.60867461 3.48950195 24.40258789 C5.31400566 31.96810825 6.13205821 39.20948099 6.0625 47 C6.05798828 47.67933594 6.05347656 48.35867188 6.04882812 49.05859375 C6.0372283 50.70576874 6.01930199 52.35289726 6 54 C6.4846875 53.29875 6.969375 52.5975 7.46875 51.875 C15.22106323 40.90249512 22.92295449 31.93736351 36.4453125 28.3515625 C44.94587396 27.18176046 53.54172932 27.86519763 62 29 C98.65367292 33.58832493 142.93334497 29.12800693 174.9375 9.16796875 C175.618125 8.78253906 176.29875 8.39710938 177 8 C177.99 8.33 178.98 8.66 180 9 C168.08248625 16.70570864 156.3702797 24.1112509 143 29 C142.28199219 29.26361328 141.56398438 29.52722656 140.82421875 29.79882812 C124.6367092 35.60005132 107.2269323 39.46165837 90 40 C88.2675 40.05994141 88.2675 40.05994141 86.5 40.12109375 C77.58479906 40.27387441 68.84235859 39.6547368 59.97705078 38.71166992 C47.35243958 37.40691763 35.98608174 36.82985338 25.5625 45.1875 C20.1311969 50.37546515 16.08656171 56.68368487 11.8671875 62.85546875 C8.49522398 67.7796944 4.82204136 72.4188465 1 77 C0.47277344 77.63808594 -0.05445313 78.27617188 -0.59765625 78.93359375 C-1.72568028 80.29413526 -2.86158935 81.64813735 -4 83 C-8.28806873 82.52354792 -10.26647487 81.34097516 -13 78 C-13 77.34 -13 76.68 -13 76 C-12.5565625 75.55914063 -12.113125 75.11828125 -11.65625 74.6640625 C-3.30728421 66.2757148 -0.87965958 51.72374598 -0.86328125 40.44726562 C-0.86714844 39.53654297 -0.87101562 38.62582031 -0.875 37.6875 C-0.87113281 36.78837891 -0.86726563 35.88925781 -0.86328125 34.96289062 C-0.8706055 29.89817283 -1.15026652 24.97492442 -1.77294922 19.94946289 C-2.50937068 13.62653241 -2.194933 7.24020567 -1 1 C-0.67 0.67 -0.34 0.34 0 0 Z " fill="#F2EAE4" transform="translate(265,742)"/>
<path d="M0 0 C2.84911251 2.57566827 4.72491797 5.54079168 6.8125 8.75 C28.66291312 40.94099325 65.15139025 60.34785968 102.6953125 68.00390625 C106.782269 68.77373383 110.87650937 69.45750093 115 70 C115.67587158 70.0942627 116.35174316 70.18852539 117.0480957 70.28564453 C155.47970988 74.92616129 193.79269327 67.97525739 231.40234375 60.86669922 C236.59683882 59.88495878 241.79653272 58.93299874 247 58 C245.61804788 60.76390425 243.76630358 60.95121686 240.96044922 61.90287781 C240.24518066 62.13602188 239.52991211 62.36916595 238.79296875 62.609375 C238.04909912 62.85690018 237.30522949 63.10442535 236.53881836 63.35945129 C234.09188295 64.16750881 231.64054141 64.96068273 229.1875 65.75 C227.93291489 66.15567703 227.93291489 66.15567703 226.65298462 66.56954956 C211.60485298 71.40937303 196.59827439 75.32496883 181 78 C180.02482422 78.17354004 179.04964844 78.34708008 178.04492188 78.52587891 C131.84191966 86.46456607 80.68793733 80.64960888 41.6875 53.125 C23.26667071 39.70616452 9.16666305 23.00693615 0 2 C0 1.34 0 0.68 0 0 Z " fill="#F2EAE4" transform="translate(515,756)"/>
<path d="M0 0 C0.66 0 1.32 0 2 0 C2.30550781 0.72703125 2.61101562 1.4540625 2.92578125 2.203125 C6.95728742 11.06108222 12.21779002 17.1477672 19 24 C19.58523438 24.64582031 20.17046875 25.29164062 20.7734375 25.95703125 C40.92003688 47.79103616 72.52145044 56.50713628 99.70080566 65.66186523 C124.57055096 74.04415728 148.80819905 82.68247676 169 100 C169.68320312 100.53882813 170.36640625 101.07765625 171.0703125 101.6328125 C180.38439411 109.19365522 186.6720992 119.38598586 192 130 C188.62444282 128.87481427 188.28977331 128.32177119 186.375 125.5 C167.86583094 100.12889509 136.21238695 88.7744129 107.640625 79.125 C106.6243251 78.78155045 105.60802521 78.43810089 104.56092834 78.08424377 C99.4478412 76.36071016 94.32988488 74.65409474 89.20288086 72.97241211 C57.57700227 62.50651487 22.04373459 47.50065684 6.03613281 16.10986328 C3.59126667 10.9174962 1.21149537 5.63070006 0 0 Z " fill="#F2EAE4" transform="translate(427,41)"/>
<path d="M0 0 C-3.80626597 1.26875532 -5.2134211 0.48242426 -9 -0.75 C-50.53373969 -13.17572544 -96.36086544 -7.50073219 -134.39208984 12.68554688 C-142.06689969 16.88804759 -149.10783162 21.62375612 -156 27 C-157.38832031 28.05574219 -157.38832031 28.05574219 -158.8046875 29.1328125 C-174.24597153 41.262053 -187.46324162 55.9524554 -197.5625 72.79296875 C-198.89103419 74.83270195 -200.26000296 76.31934843 -202 78 C-197.41430742 62.80015635 -189.37563132 48.96693943 -179 37 C-178.52804199 36.45118164 -178.05608398 35.90236328 -177.56982422 35.33691406 C-170.98570327 27.75572564 -164.0645717 21.02885457 -156 15 C-155.03964844 14.27425781 -154.07929688 13.54851562 -153.08984375 12.80078125 C-108.86381989 -19.23652807 -48.7502467 -25.09042042 0 0 Z " fill="#F2EAE4" transform="translate(352,440)"/>
<path d="M0 0 C0.33 0 0.66 0 1 0 C7.63441866 36.94777872 -4.82054647 71.81370251 -24.94116211 102.27099609 C-32.29618974 113.4370994 -36.64090782 123.46534743 -34 137 C-36 136 -36 136 -36.8515625 133.8125 C-38.52318566 127.73387031 -39.60590926 122.29916989 -39 116 C-38.94199219 115.34128906 -38.88398438 114.68257813 -38.82421875 114.00390625 C-37.62506002 106.36107533 -33.46209224 99.6317393 -29.94238281 92.8515625 C-28.13585173 89.30215014 -26.56824947 85.65924877 -25 82 C-27.20922483 83.7280375 -29.41739506 85.45739512 -31.625 87.1875 C-32.55119141 87.91163086 -32.55119141 87.91163086 -33.49609375 88.65039062 C-35.33623374 90.09344777 -37.16941977 91.54484048 -39 93 C-39.56058105 93.44093994 -40.12116211 93.88187988 -40.69873047 94.33618164 C-46.05781628 98.64775716 -49.56284675 103.09045897 -50.34375 110.07421875 C-50.3909017 114.86601001 -50.04210828 119.31905461 -49 124 C-53.13112136 121.09704986 -55.39209652 118.82371045 -57 114 C-58.05972615 105.27763864 -57.2570284 98.17087745 -52 91 C-44.84911368 82.65218421 -34.84994356 77.06404382 -25.73046875 71.13671875 C-24.48027954 70.30466919 -24.48027954 70.30466919 -23.20483398 69.45581055 C-21.53025557 68.35011781 -19.82598271 67.28924359 -18.109375 66.25 C-14.65044925 62.5604792 -13.54754605 58.0769912 -12.0625 53.3125 C-11.72331543 52.25683838 -11.38413086 51.20117676 -11.03466797 50.11352539 C-5.90719914 33.77770381 -1.6107 17.07897415 0 0 Z " fill="#F2EAE4" transform="translate(392,13)"/>
<path d="M0 0 C0.33 0 0.66 0 1 0 C0.96519531 1.423125 0.96519531 1.423125 0.9296875 2.875 C0.08455483 53.56389715 15.00652858 98.47482766 48 137 C48.72574219 137.86753906 49.45148437 138.73507812 50.19921875 139.62890625 C53.21215508 143.17776618 56.21091689 146.2443032 60 149 C59.67 149.66 59.34 150.32 59 151 C25.94749156 128.15561261 4.72962422 99.05108486 -3.45703125 59.30859375 C-6.78219813 39.04660565 -5.04627167 19.79016107 0 0 Z " fill="#F2EAE4" transform="translate(837,695)"/>
<path d="M0 0 C-3 1 -3 1 -4.87280273 0.31713867 C-5.57348877 -0.0414624 -6.2741748 -0.40006348 -6.99609375 -0.76953125 C-12.21428048 -3.22396867 -17.44193594 -4.48612858 -23.0625 -5.6875 C-24.47499023 -6.00557617 -24.47499023 -6.00557617 -25.91601562 -6.33007812 C-58.72740466 -13.56822031 -91.51681649 -7.64247905 -120 10 C-127.54264752 15.04171473 -134.70697606 20.44618408 -141 27 C-142 28 -143 29 -144 30 C-144.66 29.67 -145.32 29.34 -146 29 C-127.39794216 3.40567928 -105.98034939 -12.5710467 -74.5 -18.3125 C-47.36906929 -21.86898904 -22.42806055 -15.30425408 0 0 Z " fill="#F2EAE4" transform="translate(339,137)"/>
<path d="M0 0 C2.01326502 3.51008379 2.75591518 7.00225144 3.625 10.9375 C10.74930479 40.91486694 27.02070335 72.81999376 53.546875 90.01171875 C65.63578737 96.97241603 78.42083709 100.8444636 91.87207031 104.33325195 C94.0592295 105.01855849 95.98144486 105.92124525 98 107 C75.54044203 107.79269028 52.81212491 104.35468716 35.6875 88.625 C33.75429468 86.78224798 31.87719269 84.90153668 30 83 C29.27039063 82.26910156 28.54078125 81.53820312 27.7890625 80.78515625 C6.82518952 58.53693532 -0.609332 29.85726808 0 0 Z " fill="#F2EAE4" transform="translate(488,727)"/>
<path d="M0 0 C1.9017427 3.80348539 0.18807994 8.09786588 -1 12 C-4.00346181 18.54257287 -7.92829644 24.01590396 -14 28 C-15.485 28.495 -15.485 28.495 -17 29 C-16.88465396 27.43675768 -16.75724874 25.87440317 -16.625 24.3125 C-16.55539062 23.44238281 -16.48578125 22.57226562 -16.4140625 21.67578125 C-15.98068257 18.87516565 -15.14504555 16.58333448 -14 14 C-15.05574219 15.32451172 -15.05574219 15.32451172 -16.1328125 16.67578125 C-34.02675091 38.6305155 -58.11727721 51.86924609 -86.3125 55.625 C-95.62090413 56.4857086 -104.45214385 55.95542738 -113.6875 54.625 C-114.58573486 54.49899414 -115.48396973 54.37298828 -116.40942383 54.24316406 C-117.66662231 54.04932129 -117.66662231 54.04932129 -118.94921875 53.8515625 C-119.70549561 53.73635254 -120.46177246 53.62114258 -121.2409668 53.50244141 C-121.82144775 53.33663574 -122.40192871 53.17083008 -123 53 C-123.33 52.34 -123.66 51.68 -124 51 C-123.41081787 51.01957764 -122.82163574 51.03915527 -122.21459961 51.05932617 C-115.49908095 51.18328682 -109.17082436 50.46252429 -102.5625 49.3125 C-101.51553955 49.13170898 -100.4685791 48.95091797 -99.38989258 48.76464844 C-68.04351524 43.1671662 -37.57455601 30.58742661 -13.51611328 9.27832031 C-11.49220141 7.57184647 -9.29199591 6.31789765 -7 5 C-4.64047961 3.3676274 -2.32259664 1.68502109 0 0 Z " fill="#F2EAE4" transform="translate(482,736)"/>
<path d="M0 0 C-0.66 0.33 -1.32 0.66 -2 1 C-3.73896198 0.23262888 -5.44046585 -0.61955015 -7.125 -1.5 C-22.01116958 -8.58786543 -38.72988976 -12.59886212 -55 -15 C-55.83402344 -15.13019531 -56.66804687 -15.26039063 -57.52734375 -15.39453125 C-80.80764839 -18.37918569 -105.66306039 -14.70707034 -128 -8 C-97.23848547 -43.75887248 -30.01526506 -24.70058912 0 0 Z " fill="#F2EAE4" transform="translate(840,824)"/>
<path d="M0 0 C1.28649591 1.21276393 2.55833014 2.44133548 3.8125 3.6875 C4.33585937 4.17605469 4.85921875 4.66460937 5.3984375 5.16796875 C14.0893215 14.11176208 17.78110566 27.88661393 21.15792847 39.58459473 C25.04397145 52.9767309 29.00052661 66.58495249 37.8125 77.6875 C22.87139143 70.79670048 16.30491688 54.85111981 10.9375 40.31835938 C10.05875493 37.88023411 9.1854769 35.44019567 8.3125 33 C3.0949827 18.52948513 -3.57996439 3.69676104 -18.1875 -3.3125 C-23.00350135 -5.08681629 -27.069546 -5.52139608 -32.1875 -5.3125 C-31.8575 -5.9725 -31.5275 -6.6325 -31.1875 -7.3125 C-19.88249142 -10.01587162 -8.83835113 -7.44898911 0 0 Z " fill="#F2EAE4" transform="translate(401.1875,8.3125)"/>
<path d="M0 0 C17.90290119 -0.47661634 34.71709713 4.18724811 50.66015625 12.125 C47.64277975 13.63368825 45.30325673 12.72176972 41.98828125 12.20703125 C31.15504393 10.7004422 20.32830784 10.77740129 9.41015625 10.8125 C7.83007782 10.8132402 7.83007782 10.8132402 6.21807861 10.81399536 C-12.52356102 10.84085298 -30.84884049 11.87487485 -49.33984375 15.125 C-46.40723258 9.25977766 -33.27368262 6.3309893 -27.33984375 4.125 C-18.46840594 1.30253988 -9.24701582 0.49399751 0 0 Z " fill="#F2EAE4" transform="translate(294.33984375,133.875)"/>
</svg>
