<?xml version="1.0" encoding="UTF-8"?>
<svg version="1.1" xmlns="http://www.w3.org/2000/svg" width="181" height="167">
<path d="M0 0 C5.37209302 -0.48837209 5.37209302 -0.48837209 8.25 1.75 C10 4 10 4 10.9375 5.9375 C15.63348116 15.05322814 26.11562398 18.66191517 35.1887207 21.76928711 C40.88888616 23.7673619 45.74484799 25.82440319 48.875 31.25 C49.24625 32.1575 49.6175 33.065 50 34 C49.34 34 48.68 34 48 34 C47.38125 33.278125 46.7625 32.55625 46.125 31.8125 C42.06606373 27.58692118 36.35639342 26.05179271 31 24 C28.85015954 23.15596956 26.70415347 22.30209344 24.5625 21.4375 C23.61503906 21.06496094 22.66757813 20.69242188 21.69140625 20.30859375 C18.7513564 18.87910652 16.47405698 17.1238275 14 15 C14 15.99 14 16.98 14 18 C10.18699218 14.7129243 8.77027754 11.60272162 7 7 C6.75765625 7.845625 6.5153125 8.69125 6.265625 9.5625 C4.33992304 16.08026046 2.2720292 22.04023254 -1 28 C-0.008878 29.22061317 -0.008878 29.22061317 1.92333984 29.05004883 C2.76074707 29.01935303 3.5981543 28.98865723 4.4609375 28.95703125 C22.30101089 28.49369257 37.59122521 31.16466205 54.42089844 36.98095703 C61.86926876 39.50485294 68.58306718 41.07685136 76.078125 38.08203125 C80.98424722 35.31984456 84.03497145 31.85988701 87.1875 27.25 C88.4091927 25.46534757 89.66873973 23.70448334 91 22 C91.66 22 92.32 22 93 22 C92.84000714 29.19967874 89.35778502 34.41927926 85 40 C78.68555727 45.87629772 72.37546434 46.57319567 64.05078125 46.43359375 C54.17897859 45.88348105 44.46878975 42.67554981 35 40 C35.39614502 40.758573 35.39614502 40.758573 35.80029297 41.5324707 C41.775686 53.18653816 45 65.87622231 45 79 C49.62 79 54.24 79 59 79 C59.103125 77.453125 59.20625 75.90625 59.3125 74.3125 C59.71206871 70.16991268 60.41325053 67.37402104 63 64 C65.875 64.3125 65.875 64.3125 69 65 C71.49176741 68.73765112 71.19795715 70.41178297 70.609375 74.70703125 C69.59824488 78.51173242 67.87650038 80.3241857 65 83 C63.68 83.33 62.36 83.66 61 84 C60.67 86.97 60.34 89.94 60 93 C58.515 93.495 58.515 93.495 57 94 C57 91.03 57 88.06 57 85 C53.04 85 49.08 85 45 85 C44.97421875 85.90878906 44.9484375 86.81757812 44.921875 87.75390625 C44.17008717 104.41284104 40.42066393 123.2572395 29 136 C28.47664063 136.61488281 27.95328125 137.22976562 27.4140625 137.86328125 C19.9839097 146.00854265 9.88128342 149.7963917 -1 150.3125 C-7.84097124 150.1076805 -14.06514218 147.78064352 -19 143 C-20.87040562 139.25918876 -20.53273795 135.07387841 -20 131 C-17.04452893 125.85176007 -13.53741386 123.93247926 -8.18359375 121.56640625 C-5.71921114 120.92716568 -4.37787263 121.17502378 -2 122 C-2.5259375 123.2684375 -2.5259375 123.2684375 -3.0625 124.5625 C-4.16058981 128.58882931 -4.11569778 130.98348799 -3 135 C-0.8275141 137.73312742 0.79746976 138.7775424 4.23828125 139.4140625 C11.7466779 139.85779356 17.03638298 137.37505208 22.68359375 132.56640625 C34.09178582 120.68410749 37.30245377 100.83429946 38 85 C36.94039063 85.15597656 35.88078125 85.31195313 34.7890625 85.47265625 C33.40108813 85.66959856 32.01306468 85.86619523 30.625 86.0625 C29.92632812 86.16626953 29.22765625 86.27003906 28.5078125 86.37695312 C23.2265625 87.11328125 23.2265625 87.11328125 21 86 C20.8125 83.125 20.8125 83.125 21 80 C24.7367843 77.50881047 26.74451819 77.7934774 31.1875 77.875 C32.45980469 77.89304687 33.73210937 77.91109375 35.04296875 77.9296875 C36.01878906 77.95289062 36.99460937 77.97609375 38 78 C37.17802276 68.7742256 35.81817005 60.23975031 32.67700195 51.49414062 C31.17427091 47.18747176 30.77754968 43.54852363 31 39 C24.54731492 37.08781115 18.64957873 36.66474719 11.9375 36.6875 C10.98294922 36.67138672 10.02839844 36.65527344 9.04492188 36.63867188 C2.50911765 36.63416131 -2.68219774 37.23516479 -7.875 41.5625 C-10.34593573 44.71980677 -10.43936848 47.04568368 -10 51 C-7.11940521 58.7329336 -1.18005685 61.68032398 6 65 C6 65.66 6 66.32 6 67 C-16.33396395 67.61911399 -16.33396395 67.61911399 -23 64 C-26.59355532 60.49409237 -27.87138 57.704215 -28.25 52.6875 C-27.80448449 46.11614617 -24.70935114 42.09753549 -20.09765625 37.671875 C-15.04196092 33.64238226 -8.9684095 31.347008 -3 29 C-4.82601832 29 -6.64934567 29.1270111 -8.47265625 29.21875 C-9.37177734 29.26386719 -10.27089844 29.30898438 -11.19726562 29.35546875 C-12.14279297 29.40316406 -13.08832031 29.45085938 -14.0625 29.5 C-15.01189453 29.54769531 -15.96128906 29.59539063 -16.93945312 29.64453125 C-19.29298 29.76279893 -21.64649496 29.88129874 -24 30 C-23.34 29.01 -22.68 28.02 -22 27 C-22.53109375 27.26554687 -23.0621875 27.53109375 -23.609375 27.8046875 C-28.8046875 30.40234375 -28.8046875 30.40234375 -34 33 C-32.19827485 28.41379054 -29.00233392 26.14419081 -24.8125 23.75 C-18.9133819 22.17690184 -12.47925934 22.07772835 -7 25 C-6.979375 24.278125 -6.95875 23.55625 -6.9375 22.8125 C-6 20 -6 20 -2.625 17.9375 C1.2068021 15.51410154 1.8841707 13.02294233 2.9375 8.6875 C3.31836683 6.79684971 3.68145923 4.90214348 4 3 C2.68 2.01 1.36 1.02 0 0 Z M12 11 C13 13 13 13 13 13 Z M65 69 C63.12456646 72.86763446 63.12456646 72.86763446 64 77 C65.6483633 75.24755753 65.6483633 75.24755753 67 73 C66.78282648 70.79199472 66.78282648 70.79199472 66 69 C65.67 69 65.34 69 65 69 Z " fill="#F2EAE4" transform="translate(72,0)"/>
<path d="M0 0 C-2.30593197 2.30593197 -3.44535994 2.46065514 -6.5625 3.1875 C-16.76676857 6.20074336 -22.89604448 13.94705629 -29.82470703 21.57006836 C-35.24511104 27.45336985 -40.83929287 31.48329717 -48 35 C-47.50628906 35.37511719 -47.01257812 35.75023437 -46.50390625 36.13671875 C-41.21868912 40.35851191 -41.21868912 40.35851191 -40.0625 43.75 C-40.02315907 45.16627355 -40 46.58318016 -40 48 C-33.77216921 58.12579646 -33.77216921 58.12579646 -24.19042969 64.61767578 C-21.48156882 65.09048854 -18.9527027 65.05794395 -16.203125 64.9921875 C-15.0790625 64.97542969 -13.955 64.95867187 -12.796875 64.94140625 C-10.447751 64.89742485 -8.09876197 64.84544813 -5.75 64.78515625 C0.93773523 64.70117784 5.92326546 65.14124065 12 68 C8.84913521 69.05028826 7.63066279 68.92441888 4.4375 68.4375 C-2.83409188 67.62010938 -10.99600449 68.59706996 -17 73 C-24.27982915 82.19392216 -28.29645307 92.22079786 -27 104 C-25.68461599 111.78913669 -21.85148665 118.13627772 -17.83984375 124.80078125 C-16.284483 127.50532575 -15.05929853 130.0745797 -14 133 C-12.88625 131.7934375 -12.88625 131.7934375 -11.75 130.5625 C-9.24695171 128.23011409 -8.2819045 127.36465606 -5 127 C-4.505 130.465 -4.505 130.465 -4 134 C-1.9254644 134.1490712 -1.9254644 134.1490712 0 133 C2.98111105 132.84139902 5.95444372 132.72303338 8.9375 132.625 C18.94369624 132.20345918 27.96587881 130.5170606 37 126 C36.8125 128.3125 36.8125 128.3125 36 131 C34 132.5625 34 132.5625 31 134 C30.00226563 134.52980469 30.00226563 134.52980469 28.984375 135.0703125 C23.6286211 137.74818945 18.98858332 138.81540978 13 138 C12.67 137.67 12.34 137.34 12 137 C7.92324495 136.44206152 4.06477561 136.32778905 0 137 C-2.13742027 138.65051758 -3.37184931 140.20066059 -4.81640625 142.46875 C-5.20699219 142.9740625 -5.59757812 143.479375 -6 144 C-6.99 144 -7.98 144 -9 144 C-8.67 143.13375 -8.34 142.2675 -8 141.375 C-6.82434465 137.40716321 -6.09522181 133.80955639 -8 130 C-11.69749741 134.07999715 -13.2589664 137.86395088 -15 143 C-16.55696204 140.15822782 -17.09799113 138.3826559 -17.625 135.0625 C-18.66604342 129.93345679 -21.25085217 126.09436688 -24.02783203 121.7199707 C-30.14742043 112.05664824 -31.12723313 103.35615124 -30 92 C-29.28674045 88.97889489 -28.4162303 86.773451 -27 84 C-27.66 84 -28.32 84 -29 84 C-27.23188872 77.71338212 -22.3319351 72.5546234 -17 69 C-18.06927734 68.87044922 -18.06927734 68.87044922 -19.16015625 68.73828125 C-20.11792969 68.59777344 -21.07570312 68.45726563 -22.0625 68.3125 C-23.00222656 68.18488281 -23.94195312 68.05726562 -24.91015625 67.92578125 C-32.36740663 65.69143442 -36.27377567 60.82854865 -40.1875 54.375 C-42.79226459 50.15193879 -44.84220709 46.8483271 -49 44 C-49 43.34 -49 42.68 -49 42 C-47.02 42.33 -45.04 42.66 -43 43 C-45.95727675 39.70474877 -48.69270742 37.98883968 -52.75 36.25 C-53.73484375 35.82203125 -54.7196875 35.3940625 -55.734375 34.953125 C-56.85585938 34.48132812 -56.85585938 34.48132812 -58 34 C-58 33.67 -58 33.34 -58 33 C-57.29875 32.84144531 -56.5975 32.68289062 -55.875 32.51953125 C-54.451875 32.16955078 -54.451875 32.16955078 -53 31.8125 C-52.071875 31.59207031 -51.14375 31.37164062 -50.1875 31.14453125 C-41.71668438 28.10292711 -36.10842682 22.42114492 -30 16 C-21.36436673 6.92226947 -13.33783955 -0.65062632 0 0 Z " fill="#F2EAE4" transform="translate(58,18)"/>
<path d="M0 0 C1.40983958 1.06504186 2.80648255 2.14784184 4.1875 3.25 C7.75964823 6.02594651 10.35658731 7.08442569 15 7 C17.51674634 6.21043252 19.63430315 5.20698819 22 4 C21.04375628 5.92094978 20.08770072 7.83712724 19.0703125 9.7265625 C16.44604079 14.99679412 15.26218675 20.20866465 14.125 25.9375 C12.35486115 34.61838182 9.82054777 41.51167377 3.125 47.625 C2.073125 48.305625 2.073125 48.305625 1 49 C0.01 48.505 0.01 48.505 -1 48 C-0.29423828 47.14728516 -0.29423828 47.14728516 0.42578125 46.27734375 C6.6309158 38.58194914 9.34482405 31.67791113 11 22 C10.01 22.99 9.02 23.98 8 25 C8.42570562 18.82726847 9.42217852 14.57782148 14 10 C12.783125 9.835 11.56625 9.67 10.3125 9.5 C4.47120949 8.24102138 -0.06765153 5.10531107 -4.984375 1.875 C-13.00085272 -3.10933848 -21.15871601 -3.01389202 -30.25 -1 C-31.4875 -0.67 -32.725 -0.34 -34 0 C-25.1813905 -10.06225956 -9.81270249 -6.16564806 0 0 Z " fill="#F2EAE4" transform="translate(159,62)"/>
<path d="M0 0 C0.33 0 0.66 0 1 0 C1.20302734 0.94359375 1.20302734 0.94359375 1.41015625 1.90625 C3.08451021 8.56356156 5.62511175 13.57294151 11 18 C13.12404426 18.74505546 13.12404426 18.74505546 15 19 C14.44570312 18.52949219 13.89140625 18.05898437 13.3203125 17.57421875 C12.59585938 16.95160156 11.87140625 16.32898438 11.125 15.6875 C10.40570313 15.07261719 9.68640625 14.45773438 8.9453125 13.82421875 C7 12 7 12 5 9 C5.33 8.01 5.66 7.02 6 6 C6.78375 7.051875 7.5675 8.10375 8.375 9.1875 C13.2478169 14.90725889 20.53499295 18.44303552 28.01464844 19.20532227 C28.7059082 19.24197998 29.39716797 19.2786377 30.109375 19.31640625 C30.86347656 19.35830078 31.61757812 19.40019531 32.39453125 19.44335938 C33.56048828 19.50233398 33.56048828 19.50233398 34.75 19.5625 C35.54277344 19.60568359 36.33554688 19.64886719 37.15234375 19.69335938 C39.10137815 19.79902991 41.05066748 19.89997966 43 20 C43.495 18.515 43.495 18.515 44 17 C49.72920299 13.77732332 55.72435575 13.41346072 62 15 C65.5625 16.5625 65.5625 16.5625 68 18 C68 18.99 68 19.98 68 21 C67.40832031 20.7834375 66.81664062 20.566875 66.20703125 20.34375 C60.25567548 18.12969072 60.25567548 18.12969072 54 18 C53.01 18.66 52.02 19.32 51 20 C40.57183227 23.55765347 30.79057924 23.66008911 20 22 C18.66616531 22.05068572 17.33275788 22.1137405 16 22.1875 C11.53205166 22.23079407 8.4224556 20.84046442 5 18 C1.48427479 13.46656486 -0.14529123 10.02509495 -0.0625 4.3125 C-0.05347656 3.50425781 -0.04445313 2.69601563 -0.03515625 1.86328125 C-0.02355469 1.24839844 -0.01195313 0.63351563 0 0 Z M45 18 C49 19 49 19 49 19 Z " fill="#F2EAE4" transform="translate(96,142)"/>
<path d="M0 0 C8.90948277 1.78561659 14.73133825 5.61882583 20.37890625 12.73828125 C24.29121685 19.24917453 24.31796009 27.60525148 25 35 C25.33 35 25.66 35 26 35 C26.08636719 35.89460938 26.17273438 36.78921875 26.26171875 37.7109375 C27.48514664 48.23915179 29.7494494 56.92809949 38 64 C37.67 64.66 37.34 65.32 37 66 C36.030625 65.34 35.06125 64.68 34.0625 64 C31.4700747 61.90886852 31.4700747 61.90886852 30 62 C29.34 62 28.68 62 28 62 C22.95307285 52.94635206 21.08153622 45.31359001 20.71728516 35.02807617 C20.35353486 25.06343521 19.77874933 16.85090994 12.8125 9.125 C9.03761036 5.65374279 4.77901325 3.74471912 0 2 C0 1.34 0 0.68 0 0 Z " fill="#F2EAE4" transform="translate(139,101)"/>
</svg>
