<?xml version="1.0" standalone="no"?>
<!DOCTYPE svg PUBLIC "-//W3C//DTD SVG 20010904//EN"
 "http://www.w3.org/TR/2001/REC-SVG-20010904/DTD/svg10.dtd">
<svg version="1.0" xmlns="http://www.w3.org/2000/svg"
 width="918.000000pt" height="845.000000pt" viewBox="0 0 918.000000 845.000000"
 preserveAspectRatio="xMidYMid meet">

<g transform="translate(0.000000,845.000000) scale(0.100000,-0.100000)"
fill="#000000" stroke="none">
<path d="M3777 8430 c92 -22 210 -133 266 -250 19 -41 52 -122 72 -180 58
-165 100 -242 172 -318 61 -64 70 -67 33 -12 -26 38 -64 140 -110 295 -23 77
-59 177 -80 221 -78 161 -198 255 -325 253 -50 -1 -54 -2 -28 -9z"/>
<path d="M3910 8221 c0 -39 -69 -318 -104 -420 -22 -66 -45 -115 -63 -133 -15
-16 -84 -67 -153 -113 -137 -91 -187 -137 -221 -204 -38 -73 -26 -188 23 -229
11 -9 13 1 10 57 -3 54 0 76 16 107 28 54 133 151 263 243 13 9 -6 -37 -56
-135 -84 -165 -102 -229 -90 -321 l8 -58 8 52 c15 89 46 155 151 318 105 162
182 357 212 534 18 106 22 321 6 321 -5 0 -10 -9 -10 -19z"/>
<path d="M4300 7967 c0 -2 7 -22 16 -43 44 -105 162 -244 284 -334 156 -114
298 -179 675 -305 450 -151 617 -238 791 -410 l83 -82 -36 56 c-81 126 -183
219 -346 315 -125 73 -256 127 -557 231 -291 100 -434 160 -557 237 -98 60
-246 195 -310 282 -24 32 -43 56 -43 53z"/>
<path d="M2610 7489 c-86 -15 -217 -57 -315 -103 -263 -124 -464 -291 -851
-707 -221 -238 -346 -363 -459 -457 -172 -144 -369 -258 -549 -316 -79 -26
-268 -56 -351 -56 -24 0 -46 -4 -49 -8 -3 -5 54 -26 126 -47 220 -64 380 -155
590 -335 l53 -45 -32 41 c-83 105 -237 230 -381 307 l-81 43 97 22 c351 80
650 298 1112 812 385 427 557 578 810 709 130 68 260 114 376 135 l79 14 -60
0 c-33 0 -85 -4 -115 -9z"/>
<path d="M8284 7258 c-17 -18 -69 -89 -114 -158 -235 -354 -402 -525 -615
-631 -154 -76 -228 -92 -425 -93 -217 -1 -344 26 -750 159 -391 128 -509 164
-730 224 -575 155 -965 214 -1415 214 -428 0 -758 -56 -1059 -179 -252 -103
-474 -251 -646 -430 -194 -202 -278 -393 -268 -609 9 -171 74 -313 202 -440
130 -129 311 -190 656 -224 190 -19 682 -43 736 -36 58 7 91 25 79 44 -4 7
-85 50 -181 96 -205 98 -315 168 -414 261 -172 162 -260 354 -260 565 0 238
111 411 331 518 216 104 391 136 759 135 520 0 760 -40 1580 -262 491 -133
856 -224 1008 -251 508 -91 865 -7 1141 266 162 161 385 516 442 704 40 132
10 198 -57 127z"/>
<path d="M2663 7259 c-276 -36 -540 -192 -683 -404 l-34 -50 56 52 c70 65 234
173 331 218 179 83 308 110 517 110 156 -1 303 -22 413 -61 62 -22 55 -10 -18
31 -161 90 -384 130 -582 104z"/>
<path d="M2745 7083 c-67 -14 -193 -61 -225 -84 -11 -8 -3 -9 30 -5 178 21
350 28 565 23 132 -3 251 -9 265 -12 14 -3 -11 10 -55 29 -44 19 -115 41 -157
50 -99 20 -326 20 -423 -1z"/>
<path d="M5302 6448 c-45 -57 -1 -273 129 -635 130 -362 208 -777 226 -1206
l6 -157 -109 7 c-190 14 -533 10 -589 -6 -102 -29 -192 -86 -220 -142 -20 -38
-19 -113 2 -156 20 -43 78 -72 141 -73 23 0 103 11 178 25 176 32 352 53 489
57 l110 3 -3 -95 c-23 -753 -209 -1503 -501 -2016 -146 -258 -341 -467 -564
-608 -209 -131 -480 -201 -678 -176 -170 21 -273 74 -396 204 -92 97 -134 180
-141 280 -5 88 9 145 78 295 82 177 67 207 -89 176 -281 -54 -559 -245 -666
-455 -57 -112 -75 -266 -46 -390 60 -252 302 -442 653 -514 287 -59 568 -36
902 75 463 152 810 417 1081 824 148 222 236 416 365 804 173 519 264 980 288
1449 l7 144 260 -1 c143 0 290 3 328 7 37 5 67 6 67 3 0 -3 -9 -71 -20 -152
-12 -85 -20 -183 -18 -235 3 -88 3 -89 29 -92 23 -3 29 4 48 43 27 57 62 191
92 345 12 63 27 120 33 126 6 6 43 23 81 38 141 54 238 145 309 290 50 102 69
184 69 296 -1 153 -35 231 -131 297 -42 30 -64 38 -111 41 -75 5 -111 -13
-156 -81 -56 -85 -85 -179 -131 -426 -24 -128 -45 -236 -48 -238 -10 -10 -323
-15 -507 -8 l-197 7 -6 87 c-17 212 -49 484 -71 607 -55 297 -165 670 -290
985 -101 255 -170 359 -240 359 -18 0 -37 -6 -43 -12z m1719 -1485 c50 -43 72
-103 64 -175 -9 -79 -62 -184 -120 -237 -48 -44 -130 -89 -142 -78 -8 9 40
266 73 386 22 80 53 131 80 131 7 0 27 -12 45 -27z"/>
<path d="M6940 5545 c-129 -22 -231 -54 -345 -110 -141 -69 -193 -109 -80 -60
320 136 700 156 1024 53 180 -57 290 -117 501 -273 291 -215 419 -278 611
-300 62 -7 174 8 222 30 l32 14 -40 -7 c-62 -11 -187 -5 -256 13 -137 36 -252
101 -449 255 -75 59 -172 132 -216 162 -158 111 -350 189 -543 222 -113 19
-351 20 -461 1z"/>
<path d="M450 5368 c0 -18 13 -30 53 -51 105 -55 225 -173 327 -323 27 -39 96
-145 153 -236 57 -92 131 -201 163 -244 170 -226 356 -346 601 -389 158 -28
435 -15 623 28 49 11 22 13 -225 12 -195 0 -298 4 -340 13 -236 52 -379 135
-528 307 -39 44 -135 179 -215 300 -204 310 -283 407 -412 507 l-35 27 74 -24
c41 -14 77 -23 79 -20 14 14 -255 115 -305 115 -7 0 -13 -10 -13 -22z"/>
<path d="M9063 4957 c-93 -97 -166 -214 -228 -367 -56 -136 -93 -274 -150
-545 -133 -639 -208 -799 -534 -1139 l-66 -69 85 64 c102 77 232 203 287 279
153 212 216 391 317 899 62 307 108 482 163 611 49 113 116 231 169 296 24 30
43 54 40 54 -2 0 -39 -38 -83 -83z"/>
<path d="M8885 4789 c-209 -169 -329 -390 -349 -644 l-5 -70 28 65 c85 197
255 510 352 648 17 23 29 42 27 42 -2 -1 -25 -19 -53 -41z"/>
<path d="M2685 4193 c-16 -2 -74 -13 -129 -24 -393 -82 -746 -329 -948 -666
-51 -84 -95 -182 -61 -133 62 87 204 249 280 319 228 212 517 361 802 415 228
43 463 41 702 -8 63 -13 115 -22 117 -21 1 1 -34 16 -78 33 -98 38 -208 67
-313 81 -73 10 -304 13 -372 4z"/>
<path d="M2448 4173 c7 -3 16 -2 19 1 4 3 -2 6 -13 5 -11 0 -14 -3 -6 -6z"/>
<path d="M1860 3628 c-335 -379 -492 -901 -425 -1415 39 -294 128 -511 367
-894 262 -418 315 -556 325 -843 l6 -159 34 109 c41 135 106 270 166 349 44
59 147 163 217 219 l35 28 -40 -23 c-116 -66 -232 -178 -312 -301 l-51 -77
-16 90 c-33 182 -101 328 -315 684 -73 121 -155 265 -181 320 -246 510 -235
1095 30 1622 59 117 114 202 231 356 42 56 8 24 -71 -65z"/>
<path d="M7235 3217 c213 -90 340 -173 496 -324 131 -128 219 -244 289 -383
129 -258 157 -419 166 -944 5 -372 15 -523 44 -661 42 -203 128 -418 234 -580
31 -47 57 -85 59 -85 2 0 -22 53 -54 118 -111 228 -177 466 -199 719 -5 68
-10 286 -9 485 0 393 -9 510 -55 689 -110 430 -473 819 -891 957 -133 44 -175
49 -80 9z"/>
<path d="M8336 1330 c-43 -242 7 -548 131 -794 95 -189 236 -357 382 -455 l64
-44 -88 104 c-116 138 -215 288 -280 423 -114 238 -160 432 -183 766 l-7 105
-19 -105z"/>
<path d="M4884 1030 c9 -169 60 -331 152 -481 172 -279 373 -405 674 -423
l105 -6 -71 20 c-317 88 -472 198 -639 455 -87 133 -159 297 -206 470 l-20 70
5 -105z"/>
<path d="M4749 1029 c-59 -59 -103 -148 -97 -197 3 -24 4 -23 50 17 58 52 111
153 106 202 l-3 34 -56 -56z"/>
<path d="M4654 968 c-33 -38 -225 -158 -349 -218 -184 -90 -295 -122 -620
-177 l-50 -9 91 -12 c115 -15 138 -15 254 3 243 36 484 164 623 330 55 65 83
105 74 105 -2 0 -12 -10 -23 -22z"/>
<path d="M2636 885 c2 -49 7 -137 10 -195 8 -137 -11 -226 -71 -345 l-45 -90
25 -24 25 -25 58 59 c32 33 86 102 121 153 89 130 143 187 207 218 67 33 129
36 344 15 331 -31 687 41 955 194 107 61 115 72 27 36 -348 -144 -676 -189
-1037 -145 -162 20 -237 14 -322 -25 -74 -35 -139 -98 -202 -195 -24 -36 -45
-65 -47 -64 -1 2 1 35 6 73 10 78 0 190 -26 286 -9 35 -20 87 -25 114 -6 39
-7 29 -3 -40z"/>
<path d="M5204 775 c163 -301 475 -529 863 -630 348 -91 787 -69 1232 60 113
33 271 91 221 81 -453 -88 -593 -107 -850 -113 -239 -6 -364 3 -525 38 -215
46 -446 145 -610 260 -105 75 -242 207 -309 299 -64 87 -66 87 -22 5z"/>
<path d="M7545 459 c-111 -15 -208 -45 -313 -100 -53 -27 -88 -47 -77 -43 54
20 254 55 366 65 146 13 312 1 466 -32 88 -19 303 -88 345 -110 34 -18 18 -3
-46 44 -195 143 -475 209 -741 176z"/>
</g>
</svg>
