<?xml version="1.0" standalone="no"?>
<!DOCTYPE svg PUBLIC "-//W3C//DTD SVG 20010904//EN"
 "http://www.w3.org/TR/2001/REC-SVG-20010904/DTD/svg10.dtd">
<svg version="1.0" xmlns="http://www.w3.org/2000/svg"
 width="181.000000pt" height="166.000000pt" viewBox="0 0 181.000000 166.000000"
 preserveAspectRatio="xMidYMid meet">

<g transform="translate(0.000000,166.000000) scale(0.100000,-0.100000)"
fill="#000000" stroke="none">
<path d="M763 1649 c10 -6 32 -40 47 -75 16 -35 31 -64 34 -64 6 0 -20 84 -34
109 -6 11 -19 25 -30 31 -25 13 -40 12 -17 -1z"/>
<path d="M762 1567 c-12 -46 -20 -57 -76 -104 -14 -12 -26 -30 -26 -39 0 -14
7 -10 31 16 20 23 28 28 24 15 -19 -53 -14 -56 14 -10 30 50 56 134 49 157 -3
7 -10 -9 -16 -35z"/>
<path d="M858 1545 c25 -48 93 -88 219 -129 28 -9 71 -31 95 -48 42 -30 43
-30 18 -3 -29 32 -88 63 -184 96 -42 14 -86 39 -114 63 -25 23 -40 32 -34 21z"/>
<path d="M452 1450 c-26 -12 -91 -66 -160 -134 -121 -118 -169 -151 -243 -165
-24 -5 -35 -9 -25 -10 11 -1 44 -15 75 -32 57 -32 59 -29 8 8 l-28 21 58 27
c45 20 83 52 169 140 81 84 126 121 165 140 30 14 47 25 39 25 -8 0 -34 -9
-58 -20z"/>
<path d="M486 1415 c-22 -8 -53 -28 -70 -45 l-31 -32 38 25 c56 37 102 50 166
45 53 -5 54 -4 26 8 -39 17 -80 17 -129 -1z"/>
<path d="M1600 1385 c-70 -102 -145 -145 -229 -131 -21 3 -96 24 -167 46 -319
100 -519 93 -677 -24 -43 -31 -77 -95 -77 -144 0 -58 43 -106 108 -121 78 -17
212 -25 212 -12 0 6 -12 16 -27 22 -75 28 -133 99 -133 163 0 30 7 45 33 71
73 73 223 74 497 2 218 -57 256 -62 320 -47 59 14 113 60 152 130 53 92 43
126 -12 45z"/>
<path d="M542 1390 c-18 -4 -36 -11 -40 -15 -4 -5 1 -5 11 -2 10 4 46 7 79 7
34 0 59 2 57 4 -11 9 -77 13 -107 6z"/>
<path d="M1042 1228 c3 -18 17 -72 31 -119 14 -47 29 -118 32 -156 l7 -71 -76
-4 c-85 -4 -120 -24 -100 -56 12 -18 28 -20 118 -7 l59 8 -7 -81 c-20 -247
-123 -437 -258 -477 -67 -20 -108 -11 -148 30 -33 34 -36 57 -15 123 6 19 4
22 -16 22 -33 0 -98 -39 -123 -73 -41 -56 -19 -135 47 -169 130 -66 336 -1
435 137 63 88 119 263 137 428 l6 57 66 0 65 0 -6 -45 c-9 -56 9 -61 23 -7 6
20 11 42 11 47 0 6 14 16 30 23 63 28 85 135 35 168 -40 26 -53 10 -79 -108
-6 -27 -8 -28 -76 -28 -79 0 -74 -6 -84 101 -11 103 -77 289 -103 289 -11 0
-14 -8 -11 -32z m351 -296 c-7 -21 -34 -52 -43 -52 -8 0 6 75 17 93 9 15 33
-22 26 -41z"/>
<path d="M1315 1075 l-30 -14 30 7 c17 4 59 7 95 7 68 -1 84 -7 205 -83 28
-18 66 -34 85 -37 l35 -5 -31 10 c-18 6 -54 26 -80 45 -88 63 -142 85 -214 84
-36 0 -78 -6 -95 -14z"/>
<path d="M113 1038 c15 -11 50 -52 76 -92 80 -117 109 -136 214 -136 l62 0
-34 -17 c-39 -19 -94 -71 -112 -105 -12 -23 -12 -23 10 -4 27 24 27 19 -3 -35
-58 -105 -54 -232 11 -348 71 -128 83 -155 83 -195 l1 -41 14 33 c8 18 24 48
36 65 l21 32 -31 -35 c-24 -27 -31 -30 -31 -16 0 10 -28 70 -62 134 -55 104
-62 123 -66 188 -5 80 12 150 51 214 12 19 21 38 20 42 -5 14 66 60 113 74 26
8 75 15 108 15 51 1 55 3 26 8 -19 4 -85 5 -146 3 -151 -6 -182 7 -257 115
-69 97 -93 123 -115 123 -13 -1 -10 -6 11 -22z"/>
<path d="M1746 940 c-46 -49 -66 -86 -66 -118 1 -9 12 3 25 28 27 50 27 44 -4
-87 -20 -83 -42 -136 -61 -148 -5 -3 -15 -16 -21 -28 -11 -20 -10 -20 16 3 41
38 70 104 93 213 12 55 32 119 46 143 14 24 23 44 22 44 -2 0 -24 -22 -50 -50z"/>
<path d="M1465 612 c48 -30 96 -83 118 -132 16 -34 22 -77 28 -181 5 -104 12
-148 27 -183 12 -25 23 -46 26 -46 3 0 -2 17 -11 38 -11 25 -19 83 -24 182 -7
152 -14 181 -56 242 -25 37 -105 98 -127 98 -6 0 3 -8 19 -18z"/>
<path d="M1641 220 c-1 -66 31 -141 79 -185 l33 -30 -25 35 c-43 58 -68 118
-77 178 l-9 57 -1 -55z"/>
<path d="M919 192 c-38 -30 -90 -55 -144 -68 l-50 -12 40 -1 c44 -1 112 26
134 53 10 12 16 14 22 5 5 -8 11 -5 19 11 16 30 8 34 -21 12z"/>
<path d="M966 180 c12 -68 82 -150 127 -150 18 0 15 4 -15 23 -43 26 -71 60
-98 119 -20 43 -20 43 -14 8z"/>
<path d="M521 154 c0 -11 3 -14 6 -6 3 7 2 16 -1 19 -3 4 -6 -2 -5 -13z"/>
<path d="M775 153 c-33 -9 -72 -12 -116 -8 -61 5 -69 4 -97 -20 -17 -14 -32
-21 -34 -15 -2 6 -8 -6 -14 -25 -9 -28 -8 -35 2 -35 8 0 14 3 14 8 1 4 12 21
25 37 24 29 29 30 122 36 56 3 113 12 133 21 43 20 31 20 -35 1z"/>
<path d="M1041 130 c21 -34 102 -87 152 -101 48 -13 199 -7 237 10 20 9 16 9
-25 4 -146 -21 -254 2 -332 70 -35 31 -44 35 -32 17z"/>
<path d="M1440 79 c-11 -7 -2 -8 30 -4 40 6 96 -2 156 -20 10 -4 3 3 -16 14
-39 22 -143 29 -170 10z"/>
</g>
</svg>
